<?xml version="1.0" encoding="iso-8859-1"?>
<!-- Generator: Adobe Illustrator 16.0.0, SVG Export Plug-In . SVG Version: 6.00 Build 0)  -->
<!DOCTYPE svg PUBLIC "-//W3C//DTD SVG 1.1//EN" "http://www.w3.org/Graphics/SVG/1.1/DTD/svg11.dtd">
<svg version="1.1" id="Capa_1" xmlns="http://www.w3.org/2000/svg" xmlns:xlink="http://www.w3.org/1999/xlink" x="0px" y="0px"
	 width="612px" height="612px" viewBox="0 0 612 612" style="enable-background:new 0 0 612 612;" xml:space="preserve">
<g>
	<g>
		<path style="fill:#868e96;" d="M600.394,162.777c-7.709-7.879-17.235-11.932-28.51-11.932H89.844c-10.941,0-20.221,3.975-28.178,11.932
			s-11.939,17.243-11.939,28.178v54.375H18.566C8.289,245.329,0,253.286,0,263.564v1.322v1.995v79.562v1.33v1.986
			c0,10.277,8.289,18.232,18.566,18.232h31.162v53.045c0,10.941,3.975,20.229,11.939,28.186s17.243,11.932,28.178,11.932h482.039
			c11.274,0,20.972-3.896,28.511-11.605c7.709-7.873,11.605-17.568,11.605-28.51V190.956
			C612,180.021,607.94,170.486,600.394,162.777z M575.201,421.035c0,2.32-0.997,3.318-3.317,3.318H89.844
			c-1.33,0-3.65-1.988-3.65-3.318v-230.08c0-1.323,2.32-3.31,3.65-3.31h482.039c2.32,0,3.317,0.99,3.317,3.31L575.201,421.035
			L575.201,421.035z"/>
		<rect style="fill:#868e96;" x="420.372" y="215.491" width="123.666" height="181.011"/>
		<rect style="fill:#868e96;" x="268.868" y="215.491" width="124.981" height="181.011"/>
		<rect style="fill:#868e96;" x="117.025" y="215.491" width="123.334" height="181.011"/>
	</g>
</g>
</svg>
