<?xml version='1.0' encoding='iso-8859-1'?>
<svg version="1.1" xmlns="http://www.w3.org/2000/svg" viewBox="0 0 26 26" xmlns:xlink="http://www.w3.org/1999/xlink" enable-background="new 0 0 26 26">
  <g>
    <path style="fill:#868e96;" d="M6.6,19.4C4.9,17.7,4,15.4,4,13s0.9-4.7,2.6-6.4C6.7,6.5,6.9,6.3,7,6.2c0.4-0.4,0.5-1,0.1-1.4L5.8,3.3C5.6,3.1,5.3,3,5.1,3   S4.6,3.1,4.4,3.2C4.2,3.4,4,3.6,3.8,3.8C1.3,6.3,0,9.5,0,13s1.4,6.7,3.8,9.2c0.2,0.2,0.4,0.4,0.6,0.6C4.6,23,4.8,23,5.1,23   c0.3,0,0.6-0.1,0.7-0.3l1.3-1.5c0.4-0.4,0.3-1-0.1-1.4C6.9,19.6,6.8,19.5,6.6,19.4z"/>
    <path style="fill:#868e96;" d="m11.7,11.5c0.4-0.4 0.5-1 0.1-1.4l-1.3-1.5c-0.4-0.4-1-0.4-1.4-0.1-0.1,0.1-0.2,0.2-0.3,0.3-1.1,1.1-1.8,2.6-1.8,4.2s0.6,3.1 1.8,4.2c0.1,0.1 0.2,0.2 0.3,0.3 0.4,0.4 1,0.3 1.4-0.1l1.3-1.5c0.4-0.4 0.3-1-0.1-1.4l-.1-.1c-0.4-0.4-0.6-0.9-0.6-1.4s0.2-1 0.7-1.5c-0.1,0.1-0.1,0 0,0z"/>
    <path style="fill:#868e96;" d="m22.2,3.8c-0.2-0.2-0.4-0.4-0.6-0.6-0.2-0.2-0.4-0.2-0.7-0.2s-0.6,0.1-0.7,0.3l-1.3,1.5c-0.4,0.4-0.3,1 0.1,1.4 0.1,0.1 0.3,0.3 0.4,0.4 1.7,1.7 2.6,4 2.6,6.4s-0.9,4.7-2.6,6.4c-0.1,0.1-0.3,0.3-0.4,0.4-0.4,0.4-0.5,1-0.1,1.4l1.3,1.5c0.2,0.2 0.5,0.3 0.7,0.3s0.5-0.1 0.7-0.2c0.2-0.2 0.4-0.4 0.6-0.6 2.5-2.5 3.8-5.7 3.8-9.2s-1.4-6.7-3.8-9.2z"/>
    <path style="fill:#868e96;" d="m17.2,8.8c-0.1-0.1-0.2-0.2-0.3-0.3-0.4-0.4-1-0.3-1.4,0.1l-1.3,1.5c-0.4,0.4-0.3,1 0.1,1.4l.1,.1c0.4,0.4 0.6,0.9 0.6,1.4s-0.2,1-0.6,1.4l-.1,.1c-0.4,0.4-0.5,1-0.1,1.4l1.3,1.5c0.4,0.4 1,0.4 1.4,0.1 0.1-0.1 0.2-0.2 0.3-0.3 1.1-1.1 1.8-2.6 1.8-4.2s-0.6-3.1-1.8-4.2z"/>
  </g>
</svg>
