<?xml version="1.0" encoding="iso-8859-1"?>
<!-- Generator: Adobe Illustrator 16.0.0, SVG Export Plug-In . SVG Version: 6.00 Build 0)  -->
<!DOCTYPE svg PUBLIC "-//W3C//DTD SVG 1.1//EN" "http://www.w3.org/Graphics/SVG/1.1/DTD/svg11.dtd">
<svg version="1.1" id="Capa_1" xmlns="http://www.w3.org/2000/svg" xmlns:xlink="http://www.w3.org/1999/xlink" x="0px" y="0px"
	 width="612px" height="612px" viewBox="0 0 612 612" style="enable-background:new 0 0 612 612;" xml:space="preserve">
<g>
	<g>
		<path d="M600.388,162.703c-7.713-7.883-17.252-11.938-28.524-11.938H89.56c-10.947,0-20.232,3.977-28.193,11.938
			c-7.961,7.961-11.938,17.252-11.938,28.193v54.404H18.243C7.961,245.298,0,253.259,0,263.542v1.323v1.996v79.603v1.33v1.988
			c0,10.281,7.961,18.242,18.243,18.242h31.186v53.072c0,10.947,3.977,20.24,11.938,28.201c7.961,7.961,17.245,11.938,28.193,11.938
			h482.303c11.272,0,20.975-3.898,28.524-11.611c7.714-7.877,11.612-17.578,11.612-28.525V190.895
			C612,179.954,607.931,170.415,600.388,162.703z M575.174,421.099c0,2.322-0.991,3.32-3.312,3.32H89.56
			c-1.323,0-3.312-1.988-3.312-3.32V190.895c0-1.323,1.988-3.312,3.312-3.312h482.303c2.32,0,3.312,0.991,3.312,3.312
			L575.174,421.099L575.174,421.099z"/>
		<rect x="416.294" y="215.443" width="127.702" height="181.107"/>
	</g>
</g>
<g>
</g>
<g>
</g>
<g>
</g>
<g>
</g>
<g>
</g>
<g>
</g>
<g>
</g>
<g>
</g>
<g>
</g>
<g>
</g>
<g>
</g>
<g>
</g>
<g>
</g>
<g>
</g>
<g>
</g>
</svg>
