<?xml version="1.0" encoding="iso-8859-1"?>
<!-- Generator: Adobe Illustrator 16.0.0, SVG Export Plug-In . SVG Version: 6.00 Build 0)  -->
<!DOCTYPE svg PUBLIC "-//W3C//DTD SVG 1.1//EN" "http://www.w3.org/Graphics/SVG/1.1/DTD/svg11.dtd">
<svg version="1.1" id="Capa_1" xmlns="http://www.w3.org/2000/svg" xmlns:xlink="http://www.w3.org/1999/xlink" x="0px" y="0px"
	 width="612px" height="612px" viewBox="0 0 612 612" style="enable-background:new 0 0 612 612;" xml:space="preserve">
<g>
	<g>
		<path d="M600.394,162.7c-7.713-7.883-17.253-11.938-28.525-11.938H89.561c-10.947,0-20.232,3.977-28.193,11.938
			s-11.945,17.253-11.945,28.193v54.404h-31.18C7.961,245.296,0,253.258,0,263.541v1.323v1.996v79.603v1.33v1.988
			c0,10.283,7.961,18.244,18.243,18.244h31.179V421.1c0,10.947,3.984,20.238,11.945,28.199c7.961,7.961,17.246,11.939,28.193,11.939
			h482.308c11.272,0,20.975-3.9,28.526-11.613C608.108,441.748,612,432.047,612,421.1V190.893
			C612,179.953,607.938,170.414,600.394,162.7z M575.181,421.1c0,2.32-0.99,3.318-3.312,3.318H89.561
			c-1.323,0-3.319-1.988-3.319-3.318V190.893c0-1.323,1.996-3.312,3.319-3.312h482.308c2.321,0,3.312,0.991,3.312,3.312V421.1z"/>
		<rect x="416.298" y="215.442" width="127.703" height="181.109"/>
		<rect x="265.37" y="215.442" width="123.726" height="181.109"/>
	</g>
</g>
<g>
</g>
<g>
</g>
<g>
</g>
<g>
</g>
<g>
</g>
<g>
</g>
<g>
</g>
<g>
</g>
<g>
</g>
<g>
</g>
<g>
</g>
<g>
</g>
<g>
</g>
<g>
</g>
<g>
</g>
</svg>
